<svg width="28" height="28" viewBox="0 0 28 28" fill="none" xmlns="http://www.w3.org/2000/svg">
<g clip-path="url(#clip0_506_80)">
<rect width="28" height="28" rx="14" fill="black"/>
<path d="M18.171 18.828C18.5177 19.1765 18.7782 19.6011 18.932 20.068L19.43 21.597C19.4719 21.7147 19.5491 21.8165 19.6512 21.8885C19.7532 21.9605 19.8751 21.9992 20 21.9992C20.1249 21.9992 20.2468 21.9605 20.3488 21.8885C20.4509 21.8165 20.5281 21.7147 20.57 21.597L21.068 20.067C21.2227 19.6018 21.4839 19.1791 21.8308 18.8325C22.1776 18.486 22.6006 18.2253 23.066 18.071L24.596 17.574C24.7141 17.5326 24.8165 17.4555 24.8889 17.3534C24.9613 17.2513 25.0002 17.1292 25.0002 17.004C25.0002 16.8788 24.9613 16.7567 24.8889 16.6546C24.8165 16.5525 24.7141 16.4754 24.596 16.434L24.566 16.426L23.035 15.929C22.5696 15.7747 22.1466 15.514 21.7998 15.1675C21.4529 14.8209 21.1917 14.3982 21.037 13.933L20.54 12.403C20.4986 12.2849 20.4215 12.1825 20.3194 12.1101C20.2173 12.0377 20.0952 11.9988 19.97 11.9988C19.8448 11.9988 19.7227 12.0377 19.6206 12.1101C19.5185 12.1825 19.4414 12.2849 19.4 12.403L18.902 13.933L18.889 13.971C18.7337 14.4246 18.4768 14.8368 18.138 15.1761C17.7992 15.5155 17.3874 15.773 16.934 15.929L15.404 16.426C15.2859 16.4674 15.1835 16.5445 15.1111 16.6466C15.0387 16.7487 14.9998 16.8708 14.9998 16.996C14.9998 17.1212 15.0387 17.2433 15.1111 17.3454C15.1835 17.4475 15.2859 17.5246 15.404 17.566L16.934 18.063C17.401 18.218 17.824 18.481 18.171 18.828Z" fill="#3E30CF"/>
<path fill-rule="evenodd" clip-rule="evenodd" d="M14.75 2.25C14.75 2.05109 14.671 1.86032 14.5303 1.71967C14.3897 1.57902 14.1989 1.5 14 1.5C13.8011 1.5 13.6103 1.57902 13.4697 1.71967C13.329 1.86032 13.25 2.05109 13.25 2.25V3H8.75C8.02065 3 7.32118 3.28973 6.80546 3.80546C6.28973 4.32118 6 5.02065 6 5.75V11.25C6 11.9793 6.28973 12.6788 6.80546 13.1945C7.06082 13.4499 7.36398 13.6525 7.69762 13.7907C8.03127 13.9289 8.38886 14 8.75 14H17.834C17.9007 13.8793 17.9557 13.7527 17.999 13.62L18.302 12.5H8.75C8.06 12.5 7.5 11.94 7.5 11.25V5.75C7.5 5.06 8.06 4.5 8.75 4.5H19.25C19.94 4.5 20.5 5.06 20.5 5.75V11.082C20.642 11.1327 20.7753 11.2017 20.9 11.289C21.172 11.4909 21.3774 11.7695 21.49 12.089L21.654 12.586C21.874 12.19 22 11.735 22 11.25V5.75C22 5.38886 21.9289 5.03127 21.7907 4.69762C21.6525 4.36398 21.4499 4.06082 21.1945 3.80546C20.9392 3.5501 20.636 3.34753 20.3024 3.20933C19.9687 3.07113 19.6111 3 19.25 3H14.75V2.25ZM6.75 16H14.367C14.1958 16.2051 14.0794 16.4503 14.0286 16.7126C13.9779 16.9749 13.9946 17.2458 14.077 17.5H6.75C6.06 17.5 5.5 18.06 5.5 18.75V19.5C5.5 20.923 6.164 22.133 7.533 23.02C8.931 23.927 11.083 24.5 14 24.5C16.917 24.5 19.069 23.927 20.467 23.02C20.5466 22.9685 20.6249 22.9152 20.702 22.86C20.78 22.8233 20.8557 22.78 20.929 22.73L21.059 22.62C21.0206 22.743 21.0007 22.8711 21 23C21.003 23.282 21.09 23.557 21.25 23.79C21.3329 23.9084 21.435 24.0122 21.552 24.097C21.4641 24.1597 21.3747 24.2204 21.284 24.279C19.556 25.4 17.083 26 14 26C10.917 26 8.444 25.398 6.717 24.28C4.961 23.141 4 21.476 4 19.5V18.75C4 18.0207 4.28973 17.3212 4.80546 16.8055C5.32118 16.2897 6.02065 16 6.75 16ZM12.5 8.5C12.5 8.69698 12.4612 8.89204 12.3858 9.07403C12.3104 9.25601 12.1999 9.42137 12.0607 9.56066C11.9214 9.69995 11.756 9.81044 11.574 9.88582C11.392 9.9612 11.197 10 11 10C10.803 10 10.608 9.9612 10.426 9.88582C10.244 9.81044 10.0786 9.69995 9.93934 9.56066C9.80005 9.42137 9.68956 9.25601 9.61418 9.07403C9.5388 8.89204 9.5 8.69698 9.5 8.5C9.5 8.10218 9.65804 7.72064 9.93934 7.43934C10.2206 7.15804 10.6022 7 11 7C11.3978 7 11.7794 7.15804 12.0607 7.43934C12.342 7.72064 12.5 8.10218 12.5 8.5ZM17 10C17.3978 10 17.7794 9.84196 18.0607 9.56066C18.342 9.27936 18.5 8.89782 18.5 8.5C18.5 8.10218 18.342 7.72064 18.0607 7.43934C17.7794 7.15804 17.3978 7 17 7C16.6022 7 16.2206 7.15804 15.9393 7.43934C15.658 7.72064 15.5 8.10218 15.5 8.5C15.5 8.89782 15.658 9.27936 15.9393 9.56066C16.2206 9.84196 16.6022 10 17 10Z" fill="white"/>
<path d="M26.821 22.358L27.739 22.656L27.758 22.66C27.8291 22.6847 27.8907 22.7308 27.9343 22.7921C27.9779 22.8534 28.0013 22.9268 28.0013 23.002C28.0013 23.0772 27.9779 23.1506 27.9343 23.2119C27.8907 23.2732 27.8291 23.3193 27.758 23.344L26.839 23.642C26.5602 23.7354 26.307 23.8922 26.0991 24.1001C25.8912 24.308 25.7344 24.5612 25.641 24.84L25.342 25.758C25.3169 25.8286 25.2705 25.8897 25.2093 25.9329C25.1481 25.9761 25.0749 25.9993 25 25.9993C24.9251 25.9993 24.8519 25.9761 24.7907 25.9329C24.7295 25.8897 24.6831 25.8286 24.658 25.758L24.359 24.84C24.2668 24.5601 24.1105 24.3057 23.9025 24.097C23.6945 23.8883 23.4406 23.7311 23.161 23.638L22.242 23.34C22.1709 23.3153 22.1093 23.2692 22.0657 23.2079C22.0221 23.1466 21.9987 23.0732 21.9987 22.998C21.9987 22.9228 22.0221 22.8494 22.0657 22.7881C22.1093 22.7268 22.1709 22.6807 22.242 22.656L23.161 22.358C23.4364 22.2623 23.6861 22.1044 23.8907 21.8966C24.0954 21.6889 24.2494 21.4368 24.341 21.16L24.64 20.242C24.6651 20.1714 24.7115 20.1103 24.7727 20.0671C24.8339 20.0239 24.9071 20.0007 24.982 20.0007C25.0569 20.0007 25.1301 20.0239 25.1913 20.0671C25.2525 20.1103 25.2989 20.1714 25.324 20.242L25.622 21.16C25.7148 21.4392 25.8715 21.693 26.0797 21.9009C26.2878 22.1089 26.5417 22.2654 26.821 22.358Z" fill="#FF0000"/>
</g>
<defs>
<clipPath id="clip0_506_80">
<rect width="28" height="28" rx="14" fill="white"/>
</clipPath>
</defs>
</svg>
