<svg width="179" height="24" viewBox="0 0 179 24" fill="none" xmlns="http://www.w3.org/2000/svg">
<path d="M8.71193 9.372C9.57727 9.53333 10.2886 9.966 10.8459 10.67C11.4033 11.374 11.6819 12.1807 11.6819 13.09C11.6819 13.9113 11.4766 14.6373 11.0659 15.268C10.6699 15.884 10.0906 16.368 9.32793 16.72C8.56527 17.072 7.66327 17.248 6.62193 17.248H-6.62804e-05V1.892H6.33593C7.37727 1.892 8.27193 2.06067 9.01993 2.398C9.7826 2.73533 10.3546 3.20467 10.7359 3.806C11.1319 4.40733 11.3299 5.08933 11.3299 5.852C11.3299 6.74667 11.0879 7.49467 10.6039 8.096C10.1346 8.69733 9.50393 9.12267 8.71193 9.372ZM3.07993 8.228H5.89593C6.62927 8.228 7.19393 8.06667 7.58993 7.744C7.98593 7.40667 8.18393 6.93 8.18393 6.314C8.18393 5.698 7.98593 5.22133 7.58993 4.884C7.19393 4.54667 6.62927 4.378 5.89593 4.378H3.07993V8.228ZM6.18193 14.74C6.92993 14.74 7.50927 14.564 7.91993 14.212C8.34527 13.86 8.55793 13.3613 8.55793 12.716C8.55793 12.056 8.33793 11.5427 7.89793 11.176C7.45793 10.7947 6.86393 10.604 6.11593 10.604H3.07993V14.74H6.18193ZM27.0137 4.884C28.4657 4.884 29.639 5.346 30.5337 6.27C31.4284 7.17933 31.8757 8.45533 31.8757 10.098V17.248H28.7957V10.516C28.7957 9.548 28.5537 8.80733 28.0697 8.294C27.5857 7.766 26.9257 7.502 26.0897 7.502C25.239 7.502 24.5644 7.766 24.0657 8.294C23.5817 8.80733 23.3397 9.548 23.3397 10.516V17.248H20.2597V5.06H23.3397V6.578C23.7504 6.05 24.271 5.63933 24.9017 5.346C25.547 5.038 26.251 4.884 27.0137 4.884ZM38.3906 7.59V13.486C38.3906 13.8967 38.486 14.1973 38.6766 14.388C38.882 14.564 39.2193 14.652 39.6886 14.652H41.1186V17.248H39.1826C36.5866 17.248 35.2886 15.9867 35.2886 13.464V7.59H33.8366V5.06H35.2886V2.046H38.3906V5.06H41.1186V7.59H38.3906ZM42.5419 11.11C42.5419 9.878 42.7839 8.78533 43.2679 7.832C43.7666 6.87867 44.4339 6.14533 45.2699 5.632C46.1206 5.11867 47.0666 4.862 48.1079 4.862C49.0173 4.862 49.8093 5.04533 50.4839 5.412C51.1733 5.77867 51.7233 6.24067 52.1339 6.798V5.06H55.2359V17.248H52.1339V15.466C51.7379 16.038 51.1879 16.5147 50.4839 16.896C49.7946 17.2627 48.9953 17.446 48.0859 17.446C47.0593 17.446 46.1206 17.182 45.2699 16.654C44.4339 16.126 43.7666 15.3853 43.2679 14.432C42.7839 13.464 42.5419 12.3567 42.5419 11.11ZM52.1339 11.154C52.1339 10.406 51.9873 9.768 51.6939 9.24C51.4006 8.69733 51.0046 8.28667 50.5059 8.008C50.0073 7.71467 49.4719 7.568 48.8999 7.568C48.3279 7.568 47.7999 7.70733 47.3159 7.986C46.8319 8.26467 46.4359 8.67533 46.1279 9.218C45.8346 9.746 45.6879 10.3767 45.6879 11.11C45.6879 11.8433 45.8346 12.4887 46.1279 13.046C46.4359 13.5887 46.8319 14.0067 47.3159 14.3C47.8146 14.5933 48.3426 14.74 48.8999 14.74C49.4719 14.74 50.0073 14.6007 50.5059 14.322C51.0046 14.0287 51.4006 13.618 51.6939 13.09C51.9873 12.5473 52.1339 11.902 52.1339 11.154ZM64.9981 4.884C66.4501 4.884 67.6234 5.346 68.5181 6.27C69.4127 7.17933 69.8601 8.45533 69.8601 10.098V17.248H66.7801V10.516C66.7801 9.548 66.5381 8.80733 66.0541 8.294C65.5701 7.766 64.9101 7.502 64.0741 7.502C63.2234 7.502 62.5487 7.766 62.0501 8.294C61.5661 8.80733 61.3241 9.548 61.3241 10.516V17.248H58.2441V5.06H61.3241V6.578C61.7347 6.05 62.2554 5.63933 62.8861 5.346C63.5314 5.038 64.2354 4.884 64.9981 4.884ZM77.563 4.862C78.4723 4.862 79.2717 5.04533 79.961 5.412C80.6503 5.764 81.193 6.226 81.589 6.798V5.06H84.691V17.336C84.691 18.4653 84.4637 19.47 84.009 20.35C83.5543 21.2447 82.8723 21.9487 81.963 22.462C81.0537 22.99 79.9537 23.254 78.663 23.254C76.9323 23.254 75.5097 22.8507 74.395 22.044C73.295 21.2373 72.6717 20.1373 72.525 18.744H75.583C75.7443 19.3013 76.089 19.7413 76.617 20.064C77.1597 20.4013 77.8123 20.57 78.575 20.57C79.4697 20.57 80.1957 20.2987 80.753 19.756C81.3103 19.228 81.589 18.4213 81.589 17.336V15.444C81.193 16.016 80.643 16.4927 79.939 16.874C79.2497 17.2553 78.4577 17.446 77.563 17.446C76.5363 17.446 75.5977 17.182 74.747 16.654C73.8963 16.126 73.2217 15.3853 72.723 14.432C72.239 13.464 71.997 12.3567 71.997 11.11C71.997 9.878 72.239 8.78533 72.723 7.832C73.2217 6.87867 73.889 6.14533 74.725 5.632C75.5757 5.11867 76.5217 4.862 77.563 4.862ZM81.589 11.154C81.589 10.406 81.4423 9.768 81.149 9.24C80.8557 8.69733 80.4597 8.28667 79.961 8.008C79.4623 7.71467 78.927 7.568 78.355 7.568C77.783 7.568 77.255 7.70733 76.771 7.986C76.287 8.26467 75.891 8.67533 75.583 9.218C75.2897 9.746 75.143 10.3767 75.143 11.11C75.143 11.8433 75.2897 12.4887 75.583 13.046C75.891 13.5887 76.287 14.0067 76.771 14.3C77.2697 14.5933 77.7977 14.74 78.355 14.74C78.927 14.74 79.4623 14.6007 79.961 14.322C80.4597 14.0287 80.8557 13.618 81.149 13.09C81.4423 12.5473 81.589 11.902 81.589 11.154ZM104.139 6.644C104.139 7.46533 103.941 8.23533 103.545 8.954C103.164 9.67267 102.555 10.252 101.719 10.692C100.898 11.132 99.8567 11.352 98.5953 11.352H96.0213V17.248H92.9413V1.892H98.5953C99.7833 1.892 100.795 2.09733 101.631 2.508C102.467 2.91867 103.091 3.48333 103.501 4.202C103.927 4.92067 104.139 5.73467 104.139 6.644ZM98.4633 8.866C99.314 8.866 99.9447 8.67533 100.355 8.294C100.766 7.898 100.971 7.348 100.971 6.644C100.971 5.148 100.135 4.4 98.4633 4.4H96.0213V8.866H98.4633ZM109.406 6.952C109.802 6.30667 110.315 5.80067 110.946 5.434C111.591 5.06733 112.325 4.884 113.146 4.884V8.118H112.332C111.364 8.118 110.631 8.34533 110.132 8.8C109.648 9.25467 109.406 10.0467 109.406 11.176V17.248H106.326V5.06H109.406V6.952ZM132.33 6.82C132.726 6.26267 133.269 5.80067 133.958 5.434C134.662 5.05267 135.461 4.862 136.356 4.862C137.397 4.862 138.336 5.11867 139.172 5.632C140.023 6.14533 140.69 6.87867 141.174 7.832C141.673 8.77067 141.922 9.86333 141.922 11.11C141.922 12.3567 141.673 13.464 141.174 14.432C140.69 15.3853 140.023 16.126 139.172 16.654C138.336 17.182 137.397 17.446 136.356 17.446C135.461 17.446 134.669 17.2627 133.98 16.896C133.305 16.5293 132.755 16.0673 132.33 15.51V23.056H129.25V5.06H132.33V6.82ZM138.776 11.11C138.776 10.3767 138.622 9.746 138.314 9.218C138.021 8.67533 137.625 8.26467 137.126 7.986C136.642 7.70733 136.114 7.568 135.542 7.568C134.985 7.568 134.457 7.71467 133.958 8.008C133.474 8.28667 133.078 8.69733 132.77 9.24C132.477 9.78267 132.33 10.4207 132.33 11.154C132.33 11.8873 132.477 12.5253 132.77 13.068C133.078 13.6107 133.474 14.0287 133.958 14.322C134.457 14.6007 134.985 14.74 135.542 14.74C136.114 14.74 136.642 14.5933 137.126 14.3C137.625 14.0067 138.021 13.5887 138.314 13.046C138.622 12.5033 138.776 11.858 138.776 11.11ZM155.49 10.89C155.49 11.33 155.461 11.726 155.402 12.078H146.492C146.565 12.958 146.873 13.6473 147.416 14.146C147.959 14.6447 148.626 14.894 149.418 14.894C150.562 14.894 151.376 14.4027 151.86 13.42H155.182C154.83 14.5933 154.155 15.5613 153.158 16.324C152.161 17.072 150.936 17.446 149.484 17.446C148.311 17.446 147.255 17.1893 146.316 16.676C145.392 16.148 144.666 15.4073 144.138 14.454C143.625 13.5007 143.368 12.4007 143.368 11.154C143.368 9.89267 143.625 8.78533 144.138 7.832C144.651 6.87867 145.37 6.14533 146.294 5.632C147.218 5.11867 148.281 4.862 149.484 4.862C150.643 4.862 151.677 5.11133 152.586 5.61C153.51 6.10867 154.221 6.82 154.72 7.744C155.233 8.65333 155.49 9.702 155.49 10.89ZM152.3 10.01C152.285 9.218 151.999 8.58733 151.442 8.118C150.885 7.634 150.203 7.392 149.396 7.392C148.633 7.392 147.988 7.62667 147.46 8.096C146.947 8.55067 146.631 9.18867 146.514 10.01H152.3ZM160.818 6.952C161.214 6.30667 161.728 5.80067 162.358 5.434C163.004 5.06733 163.737 4.884 164.558 4.884V8.118H163.744C162.776 8.118 162.043 8.34533 161.544 8.8C161.06 9.25467 160.818 10.0467 160.818 11.176V17.248H157.738V5.06H160.818V6.952ZM170.219 7.59V13.486C170.219 13.8967 170.314 14.1973 170.505 14.388C170.71 14.564 171.047 14.652 171.517 14.652H172.947V17.248H171.011C168.415 17.248 167.117 15.9867 167.117 13.464V7.59H165.665V5.06H167.117V2.046H170.219V5.06H172.947V7.59H170.219ZM176.724 3.608C176.181 3.608 175.727 3.43933 175.36 3.102C175.008 2.75 174.832 2.31733 174.832 1.804C174.832 1.29067 175.008 0.865333 175.36 0.528C175.727 0.176 176.181 2.38419e-07 176.724 2.38419e-07C177.267 2.38419e-07 177.714 0.176 178.066 0.528C178.433 0.865333 178.616 1.29067 178.616 1.804C178.616 2.31733 178.433 2.75 178.066 3.102C177.714 3.43933 177.267 3.608 176.724 3.608ZM178.242 5.06V17.248H175.162V5.06H178.242Z" fill="white"/>
<path d="M15.6987 3.608C15.156 3.608 14.7013 3.43933 14.3347 3.102C13.9827 2.75 13.8067 2.31733 13.8067 1.804C13.8067 1.29067 13.9827 0.865333 14.3347 0.528C14.7013 0.176 15.156 2.38419e-07 15.6987 2.38419e-07C16.2413 2.38419e-07 16.6887 0.176 17.0407 0.528C17.4073 0.865333 17.5907 1.29067 17.5907 1.804C17.5907 2.31733 17.4073 2.75 17.0407 3.102C16.6887 3.43933 16.2413 3.608 15.6987 3.608ZM17.2167 5.06V17.248H14.1367V5.06H17.2167Z" fill="#D0C7FF"/>
<path d="M120.633 17.446C119.459 17.446 118.403 17.1893 117.465 16.676C116.526 16.148 115.785 15.4073 115.243 14.454C114.715 13.5007 114.451 12.4007 114.451 11.154C114.451 9.90733 114.722 8.80733 115.265 7.854C115.822 6.90067 116.577 6.16733 117.531 5.654C118.484 5.126 119.547 4.862 120.721 4.862C121.894 4.862 122.957 5.126 123.911 5.654C124.864 6.16733 125.612 6.90067 126.155 7.854C126.712 8.80733 126.991 9.90733 126.991 11.154C126.991 12.4007 126.705 13.5007 126.133 14.454C125.575 15.4073 124.813 16.148 123.845 16.676C122.891 17.1893 121.821 17.446 120.633 17.446ZM120.633 14.762C121.19 14.762 121.711 14.63 122.195 14.366C122.693 14.0873 123.089 13.6767 123.383 13.134C123.676 12.5913 123.823 11.9313 123.823 11.154C123.823 9.99533 123.515 9.108 122.899 8.492C122.297 7.86133 121.557 7.546 120.677 7.546C119.797 7.546 119.056 7.86133 118.455 8.492C117.868 9.108 117.575 9.99533 117.575 11.154C117.575 12.3127 117.861 13.2073 118.433 13.838C119.019 14.454 119.753 14.762 120.633 14.762Z" fill="#FF8C8C"/>
</svg>
