<svg width="45" height="45" viewBox="0 0 45 45" fill="none" xmlns="http://www.w3.org/2000/svg">
<rect width="45" height="45" rx="5" fill="black" fill-opacity="0.6"/>
<path d="M22.5 5C12.2828 5 4 13.059 4 23C4 31.4413 9.97328 38.5246 18.0311 40.4701V28.5008H14.2164V23H18.0311V20.6298C18.0311 14.5033 20.8809 11.6636 27.0628 11.6636C28.235 11.6636 30.2574 11.8875 31.0847 12.1107V17.0967C30.6481 17.0521 29.8896 17.0298 28.9476 17.0298C25.9144 17.0298 24.7422 18.1479 24.7422 21.0546V23H30.785L29.7468 28.5008H24.7422V40.8682C33.9027 39.7918 41.0007 32.203 41.0007 23C41 13.059 32.7172 5 22.5 5Z" fill="white"/>
</svg>
