<svg width="45" height="45" viewBox="0 0 45 45" fill="none" xmlns="http://www.w3.org/2000/svg">
<rect width="45" height="45" rx="5" fill="black" fill-opacity="0.6"/>
<path d="M22.5 9.88125C27.1758 9.88125 27.7295 9.9 29.5684 9.975C31.2773 10.0437 32.2002 10.3063 32.8154 10.525C33.6289 10.8125 34.2168 11.1625 34.8252 11.7188C35.4404 12.2813 35.8164 12.8125 36.1309 13.5563C36.3701 14.1188 36.6572 14.9687 36.7324 16.525C36.8145 18.2125 36.835 18.7188 36.835 22.9875C36.835 27.2625 36.8145 27.7688 36.7324 29.45C36.6572 31.0125 36.3701 31.8563 36.1309 32.4188C35.8164 33.1625 35.4336 33.7 34.8252 34.2563C34.21 34.8188 33.6289 35.1625 32.8154 35.45C32.2002 35.6688 31.2705 35.9313 29.5684 36C27.7227 36.075 27.1689 36.0938 22.5 36.0938C17.8242 36.0938 17.2705 36.075 15.4316 36C13.7227 35.9313 12.7998 35.6688 12.1846 35.45C11.3711 35.1625 10.7832 34.8125 10.1748 34.2563C9.55957 33.6938 9.18359 33.1625 8.86914 32.4188C8.62988 31.8563 8.34277 31.0063 8.26758 29.45C8.18555 27.7625 8.16504 27.2563 8.16504 22.9875C8.16504 18.7125 8.18555 18.2062 8.26758 16.525C8.34277 14.9625 8.62988 14.1188 8.86914 13.5563C9.18359 12.8125 9.56641 12.275 10.1748 11.7188C10.79 11.1563 11.3711 10.8125 12.1846 10.525C12.7998 10.3063 13.7295 10.0437 15.4316 9.975C17.2705 9.9 17.8242 9.88125 22.5 9.88125ZM22.5 7C17.749 7 17.1543 7.01875 15.2881 7.09375C13.4287 7.16875 12.1504 7.44375 11.043 7.8375C9.8877 8.25 8.91016 8.79375 7.93945 9.6875C6.96191 10.575 6.36719 11.4688 5.91602 12.5188C5.48535 13.5375 5.18457 14.7 5.10254 16.4C5.02051 18.1125 5 18.6563 5 23C5 27.3438 5.02051 27.8875 5.10254 29.5938C5.18457 31.2938 5.48535 32.4625 5.91602 33.475C6.36719 34.5313 6.96191 35.425 7.93945 36.3125C8.91016 37.2 9.8877 37.75 11.0361 38.1563C12.1504 38.55 13.4219 38.825 15.2813 38.9C17.1475 38.975 17.7422 38.9937 22.4932 38.9937C27.2441 38.9937 27.8389 38.975 29.7051 38.9C31.5645 38.825 32.8428 38.55 33.9502 38.1563C35.0986 37.75 36.0762 37.2 37.0469 36.3125C38.0176 35.425 38.6191 34.5313 39.0635 33.4813C39.4941 32.4625 39.7949 31.3 39.877 29.6C39.959 27.8938 39.9795 27.35 39.9795 23.0063C39.9795 18.6625 39.959 18.1188 39.877 16.4125C39.7949 14.7125 39.4941 13.5438 39.0635 12.5313C38.6328 11.4688 38.0381 10.575 37.0606 9.6875C36.0898 8.8 35.1123 8.25 33.9639 7.84375C32.8496 7.45 31.5781 7.175 29.7188 7.1C27.8457 7.01875 27.251 7 22.5 7Z" fill="white"/>
<path d="M22.5 14.7812C17.5371 14.7812 13.5107 18.4625 13.5107 23C13.5107 27.5375 17.5371 31.2188 22.5 31.2188C27.4629 31.2188 31.4893 27.5375 31.4893 23C31.4893 18.4625 27.4629 14.7812 22.5 14.7812ZM22.5 28.3312C19.2803 28.3312 16.6689 25.9438 16.6689 23C16.6689 20.0563 19.2803 17.6687 22.5 17.6687C25.7197 17.6687 28.3311 20.0563 28.3311 23C28.3311 25.9438 25.7197 28.3312 22.5 28.3312Z" fill="white"/>
<path d="M33.9434 14.4562C33.9434 15.5187 33 16.375 31.8447 16.375C30.6826 16.375 29.7461 15.5125 29.7461 14.4562C29.7461 13.3937 30.6895 12.5375 31.8447 12.5375C33 12.5375 33.9434 13.4 33.9434 14.4562Z" fill="white"/>
</svg>
