<svg width="74" height="52" viewBox="0 0 74 52" fill="none" xmlns="http://www.w3.org/2000/svg">
<path d="M34.7305 40.3C35.2074 40.818 36.0457 41.1633 36.9996 41.1633C37.9535 41.1633 38.7918 40.818 39.2832 40.3L55.2105 23.0141C57.3496 20.6883 58.5926 18.1289 58.5926 15.1633C58.5781 6.59141 48.9957 0 36.9996 0C25.0035 0 15.4211 6.59141 15.4211 15.1633C15.4211 18.1289 16.6641 20.6883 18.8031 23.0141L34.7305 40.3ZM36.9996 6.5C43.807 6.5 49.3281 10.3797 49.3281 15.1633C49.3281 19.9469 43.807 23.8266 36.9996 23.8266C30.1922 23.8266 24.6711 19.9469 24.6711 15.1633C24.6711 10.3797 30.1922 6.5 36.9996 6.5ZM52.8113 32.8555L36.9996 47.6633L21.1879 32.8555C15.7824 34.8461 12.3281 37.8219 12.3281 41.1633C12.3281 47.1453 23.3703 52 36.9996 52C50.6289 52 61.6711 47.1453 61.6711 41.1633C61.6711 37.8219 58.2168 34.8461 52.8113 32.8555Z" fill="black"/>
</svg>
