<svg width="72" height="54" viewBox="0 0 72 54" fill="none" xmlns="http://www.w3.org/2000/svg">
<path fill-rule="evenodd" clip-rule="evenodd" d="M68.3867 34.0143C65.9236 31.2424 52.9467 21.8197 49.6949 19.2727C44.62 15.2814 41.1225 10.84 34.4976 9.73751C30.3357 9.01528 9.27181 10.9525 12.6146 13.5242C12.7135 13.5993 12.8317 13.6591 12.9622 13.6999C13.0927 13.7406 13.2329 13.7617 13.3745 13.7617C13.5161 13.7617 13.6563 13.7406 13.7868 13.6999C13.9173 13.6591 14.0354 13.5993 14.1343 13.5242C15.5934 12.4644 25.9585 11.4272 33.9515 11.6522C37.6174 12.6071 40.7506 14.4395 42.8576 16.8608C47.2621 20.9624 62.9448 33.0446 65.0135 35.119C65.3776 35.5255 65.691 35.9538 65.9539 36.4037C61.8021 41.0965 56.7545 45.3178 50.9689 48.9359C48.9936 50.1483 46.7097 51.0535 44.253 51.5976C39.643 49.0176 35.2486 46.2323 31.0941 43.257C26.1574 39.5933 21.471 35.7486 17.0525 31.7374C14.9083 29.4339 13.7826 26.693 13.831 23.8941C13.831 23.7088 13.7318 23.5311 13.5551 23.4001C13.3785 23.2691 13.1389 23.1955 12.8891 23.1955C12.6393 23.1955 12.3998 23.2691 12.2231 23.4001C12.0465 23.5311 11.9473 23.7088 11.9473 23.8941C12.3416 30.2502 14.1647 31.8274 19.6976 36.7412C25.8217 42.613 32.8835 47.912 40.7282 52.5223C41.3388 53.1513 42.2098 53.6151 43.2087 53.8429C44.2075 54.0708 45.2794 54.0503 46.2611 53.7845C54.1934 51.98 63.1571 43.437 67.7163 39.1329C69.418 37.486 70.5161 36.4712 68.3867 34.0143Z" fill="#020202"/>
<path fill-rule="evenodd" clip-rule="evenodd" d="M26.0494 21.9546C27.2021 19.5652 27.5357 18.2579 24.927 16.746C24.2223 16.3069 23.403 15.9805 22.5203 15.7872C21.6377 15.5939 20.7107 15.5379 19.7975 15.6226C18.8843 15.7072 18.0045 15.9309 17.2132 16.2794C16.4219 16.628 15.7362 17.094 15.1989 17.6482C12.5609 16.4657 10.234 14.938 8.33129 13.1393C4.80345 10.2099 1.39997 5.31856 5.35249 2.77163C7.02086 1.66692 9.97236 2.25415 12.8602 3.51411C19.5154 6.33328 19.2728 9.2852 21.0958 8.47297C23.6469 7.3255 15.7449 2.2519 12.4021 1.01218C4.53044 -1.93973 -0.787108 2.02691 0.0956114 6.96326C1.18764 12.9593 7.60024 17.0182 14.7136 19.6304C16.1089 26.261 24.924 24.3665 26.0494 21.9546ZM24.836 19.9926C24.7273 20.6748 24.2967 21.3064 23.6205 21.7757C22.9442 22.245 22.0658 22.5216 21.1409 22.5566C20.2161 22.5917 19.3043 22.3828 18.5671 21.9671C17.8299 21.5513 17.3148 20.9555 17.113 20.2851C18.4507 20.6451 19.6671 20.6451 19.7884 20.0601C19.9098 19.4752 18.208 18.8452 17.022 18.3704C20.4255 15.3488 25.5671 18.1454 24.836 19.9926Z" fill="black"/>
<path fill-rule="evenodd" clip-rule="evenodd" d="M69.6346 14.9212C58.8448 11.4721 61.7599 12.4193 46.6869 9.37513C46.4442 9.37513 44.8942 8.81265 44.0418 9.24014C43.9049 9.33729 43.8066 9.46046 43.7576 9.59621C43.7087 9.73197 43.7109 9.87509 43.7641 10.01C43.8173 10.1448 43.9194 10.2663 44.0593 10.3611C44.1993 10.4558 44.3716 10.5203 44.5575 10.5474C46.6343 10.9973 48.6617 11.5463 50.6394 12.1943C56.2897 14.1427 62.1061 15.8142 68.0511 17.1982C70.5749 18.0306 66.3828 24.6589 66.4131 26.2159C66.4131 26.4248 66.525 26.625 66.7241 26.7727C66.9232 26.9204 67.1932 27.0034 67.4748 27.0034C67.7564 27.0034 68.0264 26.9204 68.2255 26.7727C68.4246 26.625 68.5365 26.4248 68.5365 26.2159C68.6275 24.344 75.4981 17.3107 69.6346 14.9212ZM29.4542 27.5456C29.2058 27.4412 28.9941 27.295 28.836 27.1188C28.6779 26.9425 28.5779 26.7411 28.5442 26.5309C28.5709 26.4113 28.5622 26.2889 28.5187 26.1721C28.4752 26.0553 28.398 25.9469 28.2923 25.8545C28.1867 25.7621 28.0552 25.6878 27.9069 25.6369C27.7587 25.586 27.5973 25.5596 27.4339 25.5596C27.2706 25.5596 27.1092 25.586 26.9609 25.6369C26.8127 25.6878 26.6812 25.7621 26.5755 25.8545C26.4699 25.9469 26.3926 26.0553 26.3491 26.1721C26.3057 26.2889 26.297 26.4113 26.3237 26.5309C26.2304 27.1736 26.4118 27.8218 26.8424 28.3839C27.273 28.9459 27.9309 29.3933 28.7231 29.6628C29.1819 29.8176 29.6774 29.9037 30.1811 29.9162C30.6848 29.9287 31.1869 29.8673 31.6586 29.7356C32.1304 29.604 32.5624 29.4046 32.93 29.1488C33.2977 28.8931 33.5937 28.5861 33.801 28.2453C34.1954 27.7279 34.4107 27.1474 34.4381 26.5534C34.4505 26.0386 34.3374 25.5264 34.1044 25.0414C33.346 23.489 32.251 22.4495 35.5301 24.389C35.7022 24.5083 35.9253 24.5789 36.1605 24.5885C36.3957 24.5981 36.6279 24.5461 36.8166 24.4415C37.0053 24.3369 37.1385 24.1865 37.1927 24.0165C37.247 23.8464 37.219 23.6677 37.1135 23.5115C35.1994 21.7295 32.9183 20.1501 30.6402 21.9995C30.3044 22.3138 30.0607 22.6767 29.9249 23.065C29.7891 23.4532 29.7641 23.8582 29.8516 24.254C29.8516 24.9964 30.4886 25.6737 30.6402 26.5084C30.7279 26.7287 30.7279 26.9631 30.6402 27.1834C30.3066 27.4984 29.9122 27.7459 29.4542 27.5434M41.5817 25.9662C40.8699 25.9662 40.1803 26.0562 39.5129 26.2361C38.592 26.4895 37.7462 26.8731 37.0225 27.3656C36.157 27.9956 35.346 28.6638 34.5897 29.3703L33.164 30.5875L31.5503 32.0297C31.4137 32.175 31.3516 32.3516 31.3753 32.5279C31.3989 32.7041 31.5066 32.8682 31.6791 32.9907C31.8515 33.1131 32.0773 33.1859 32.3156 33.1957C32.554 33.2056 32.7893 33.1519 32.979 33.0445L34.8324 31.852L35.2571 31.6045V31.8295C35.4244 32.1215 35.7251 32.3605 36.1064 32.5045C36.5948 32.7295 37.0225 32.797 37.5079 32.9995C36.8102 33.5169 36.0822 34.0817 35.4118 34.5339C35.2962 34.6033 35.2003 34.689 35.1294 34.7859C35.0585 34.8829 35.014 34.9892 34.9985 35.0989C34.983 35.2086 34.9968 35.3194 35.0391 35.4252C35.0814 35.5309 35.1513 35.6294 35.2449 35.7151C35.3385 35.8008 35.454 35.872 35.5847 35.9246C35.7154 35.9772 35.8588 36.0101 36.0067 36.0216C36.1545 36.0331 36.304 36.0229 36.4466 35.9915C36.5891 35.9602 36.7219 35.9083 36.8375 35.8389C38.2055 35.1189 39.88 34.2864 41.2753 33.3617C42.3128 32.6942 43.2248 31.9427 44.0115 31.1073C44.6121 30.2883 44.8578 29.3523 44.7091 28.4231C44.6722 28.0265 44.5299 27.6393 44.2905 27.2836C44.051 26.928 43.7191 26.611 43.3138 26.3509C42.7923 26.1118 42.1946 25.9775 41.5817 25.9662ZM41.157 29.8698C40.6569 30.5752 40.0438 31.2332 39.3309 31.8295C39.2332 31.4655 39.0806 31.1107 38.8759 30.772C38.6963 30.4679 38.4012 30.2091 38.0266 30.0273C38.3906 29.8023 38.7546 29.5773 39.1489 29.3748C39.5433 29.1701 42.7374 27.6604 41.157 29.8698ZM46.1682 32.5945L41.885 34.8489C41.028 35.3815 40.2801 36.0037 39.6646 36.6961C39.4076 37.0659 39.2735 37.4759 39.2735 37.8919C39.2735 38.308 39.4076 38.718 39.6646 39.0878L40.3623 39.9878L41.3663 40.8675C41.5589 41.0292 41.8286 41.1292 42.1186 41.1463C42.4086 41.1634 42.6963 41.0963 42.9209 40.9592C43.1455 40.8221 43.2896 40.6256 43.3227 40.4112C43.3558 40.1968 43.2754 39.9813 43.0984 39.81L42.7041 39.0855L42.4007 38.3205V38.0956C42.4007 38.0281 42.8254 37.8031 43.0377 37.6456L44.4058 36.6961L47.4453 33.6092C47.5649 33.5483 47.6653 33.4689 47.7394 33.3764C47.8136 33.284 47.8598 33.1806 47.8748 33.0736C47.8898 32.9666 47.8732 32.8584 47.8263 32.7566C47.7793 32.6548 47.7031 32.5618 47.6029 32.484C47.5027 32.4062 47.3809 32.3454 47.2459 32.306C47.1109 32.2666 46.966 32.2494 46.8211 32.2556C46.6763 32.2619 46.5351 32.2914 46.4071 32.3421C46.2792 32.3928 46.1677 32.4636 46.0802 32.5495L46.1682 32.5945ZM51.4888 38.9505L51.9438 39.4455C52.1339 39.594 52.3361 39.7298 52.5505 39.8528C55.0136 41.295 55.4079 41.1375 55.866 40.89C56.321 40.6425 56.8367 40.5525 55.3503 38.2081C55.2178 38.0005 55.055 37.8044 54.865 37.6231C54.6603 37.4428 54.4247 37.2832 54.1642 37.1483C51.7011 35.9311 51.1248 36.1786 47.5969 38.2733C47.2026 38.5005 46.9296 38.793 46.5656 39.0405C46.1712 39.333 45.7466 39.603 45.3826 39.9203C45.0064 40.2967 44.6808 40.695 44.4058 41.115C44.1389 41.5447 44.0115 42.0149 44.0418 42.4897C44.1146 43.0477 44.3755 43.5831 44.8001 44.0466C45.1975 44.4516 47.2026 46.3011 48.328 45.3516C49.4503 44.4066 47.9943 44.1816 47.3876 43.2119C47.2932 42.977 47.2932 42.7268 47.3876 42.4919L47.9943 41.9947L48.2977 42.1747C50.7577 43.3244 51.1551 43.1197 51.5495 42.8497C51.9438 42.5797 52.2775 42.2647 50.9124 40.3725C50.7962 40.1978 50.6426 40.0382 50.4574 39.9L51.6101 38.8605C51.5858 38.9005 51.5427 38.9325 51.4888 38.9505Z" fill="#020202"/>
</svg>
