<svg width="72" height="54" viewBox="0 0 72 54" fill="none" xmlns="http://www.w3.org/2000/svg">
<path d="M36 39.2505C41.7291 39.2505 46.5909 38.0626 50.5851 35.687C54.5794 33.3113 56.5749 30.4197 56.5714 27.0122C56.568 23.6047 54.5726 20.7142 50.5851 18.3405C46.5977 15.9669 41.736 14.7791 36 14.777C30.264 14.775 25.404 15.9628 21.42 18.3405C17.436 20.7183 15.4389 23.6088 15.4286 27.0122C15.4183 30.4157 17.4154 33.3072 21.42 35.687C25.4246 38.0667 30.2846 39.2535 36 39.2474M37.98 26.5442L45.8897 31.2242C46.2703 31.4526 46.4777 31.7207 46.512 32.0287C46.5463 32.3366 46.3389 32.6251 45.8897 32.8943C45.4406 33.1635 44.9726 33.297 44.4857 33.295C43.9989 33.293 43.5309 33.1604 43.0817 32.8974L35.2646 28.248C34.8189 27.9829 34.5 27.7035 34.308 27.4099C34.116 27.1162 34.0217 26.8134 34.0251 26.5014V19.3652C34.0251 19.0512 34.2223 18.7769 34.6166 18.5424C35.0109 18.3079 35.472 18.1907 36 18.1907C36.528 18.1907 36.9909 18.3079 37.3886 18.5424C37.7794 18.779 37.9749 19.0543 37.9749 19.3683L37.98 26.5442ZM36 54C35.5337 54 35.0417 53.9745 34.524 53.9235C34.0063 53.8726 33.5263 53.7961 33.084 53.6941C22.9594 51.4 14.9143 47.5092 8.94857 42.0218C2.98286 36.5343 0 30.5941 0 24.2012V11.1004C0 10.0522 0.502287 9.10808 1.50686 8.26793C2.508 7.42778 3.80572 6.81908 5.4 6.44183L33.0943 0.324232C34.0954 0.108077 35.064 0 36 0C36.936 0 37.9063 0.108077 38.9109 0.324232L66.6 6.44183C68.1909 6.82112 69.4886 7.42982 70.4931 8.26793C71.4977 9.10808 72 10.0522 72 11.1004V24.2012C72 30.5941 69.0171 36.5343 63.0514 42.0218C57.0857 47.5092 49.0423 51.4 38.9211 53.6941C38.472 53.7961 37.9903 53.8726 37.476 53.9235C36.9617 53.9745 36.4697 54 36 54ZM36 51.1186C44.9143 49.4363 52.2857 46.0716 58.1143 41.0246C63.9429 35.9776 66.8571 30.3698 66.8571 24.2012V11.0423C66.8571 10.6507 66.6754 10.2979 66.312 9.98391C65.952 9.66988 65.4411 9.43537 64.7794 9.28039L37.0903 3.1628C36.7611 3.08123 36.3977 3.04044 36 3.04044C35.6023 3.04044 35.2389 3.08123 34.9097 3.1628L7.22057 9.28039C6.55886 9.43537 6.048 9.66988 5.688 9.98391C5.32457 10.2979 5.14286 10.6507 5.14286 11.0423V24.2012C5.14286 30.3698 8.05714 35.9776 13.8857 41.0246C19.7143 46.0716 27.0857 49.4363 36 51.1186Z" fill="black"/>
</svg>
