<svg width="45" height="45" viewBox="0 0 45 45" fill="none" xmlns="http://www.w3.org/2000/svg">
<rect width="45" height="45" rx="5" fill="black" fill-opacity="0.6"/>
<path d="M5 39L7.54258 30.7827C5.97362 28.3773 5.14921 25.6507 5.15072 22.8547C5.15524 14.1133 13.1959 7 23.0754 7C27.8696 7.00133 32.37 8.65333 35.7551 11.6507C39.1387 14.648 41.0015 18.632 41 22.8693C40.9955 31.612 32.9548 38.7253 23.0754 38.7253C20.0761 38.724 17.1206 38.0587 14.5026 36.7947L5 39ZM14.9427 33.924C17.4687 35.2507 19.8802 36.0453 23.0693 36.0467C31.2803 36.0467 37.9691 30.1347 37.9736 22.8667C37.9766 15.584 31.3195 9.68 23.0814 9.67733C14.8644 9.67733 8.18011 15.5893 8.17709 22.856C8.17558 25.8227 9.15825 28.044 10.8086 30.368L9.30294 35.232L14.9427 33.924ZM32.1047 26.6387C31.9932 26.4733 31.6948 26.3747 31.2457 26.176C30.798 25.9773 28.5961 25.0187 28.1846 24.8867C27.7747 24.7547 27.4763 24.688 27.1763 25.0853C26.8779 25.4813 26.0188 26.3747 25.7581 26.6387C25.4974 26.9027 25.2351 26.936 24.7875 26.7373C24.3399 26.5387 22.896 26.1213 21.1854 24.7707C19.8546 23.72 18.9548 22.4227 18.694 22.0253C18.4333 21.6293 18.6669 21.4147 18.89 21.2173C19.0919 21.04 19.3376 20.7547 19.5622 20.5227C19.7897 20.2933 19.8636 20.128 20.0143 19.8627C20.1635 19.5987 20.0897 19.3667 19.9766 19.168C19.8636 18.9707 18.9683 17.02 18.5961 16.2267C18.2313 15.4547 17.8621 15.5587 17.5878 15.5467L16.7287 15.5333C16.4303 15.5333 15.945 15.632 15.535 16.0293C15.1251 16.4267 13.9676 17.384 13.9676 19.3347C13.9676 21.2853 15.5727 23.1693 15.7958 23.4333C16.0203 23.6973 18.9533 27.7 23.4461 29.416C24.5147 29.824 25.3497 30.068 25.9992 30.2507C27.0723 30.552 28.049 30.5093 28.8206 30.408C29.6812 30.2947 31.4702 29.4493 31.844 28.524C32.2178 27.5973 32.2178 26.804 32.1047 26.6387Z" fill="white"/>
</svg>
